# xmcd
#
# Track frame offsets:
#	150
#	34858
#	58981
#	88466
#	108676
#	138014
#	163585
#	200470
#	217121
#	238480
#	260268
#	288066
#
# Disc length: 4016 seconds
#
# Revision: 1
# Processed by: cddbd v1.5.2PL0 Copyright (c) Steve Scherf et al.
# Submitted via: audiograbber 1.83.01
#
DISCID=bb0fae0c
DTITLE=Rudy Rotta - The Beatles Vs. The Rolling Stones
DYEAR=2014
DGENRE=Blues
TTITLE0=Sympathy For The Devil - Come Together
TTITLE1=Get Off Of My Cloud - Ticket To Ride
TTITLE2=Ruby Tuesday - Strawberry Fields
TTITLE3=Under My Thumb - Things We Said Today
TTITLE4=Tell Me - While My Guitar Gently Weeps
TTITLE5=As Tears Go By - Here, There And Everywhere
TTITLE6=Miss You - Rocky Raccoon
TTITLE7=(I Can't Get No) Satisfaction - Ob La Di, Ob La Da
TTITLE8=You Can't Get Always What You Want - Let It Be
TTITLE9=The Last Time - Day Tripper
TTITLE10=Lady Jane - Julia
TTITLE11=Con Le Mie Lacrime
EXTD=
EXTT0=
EXTT1=
EXTT2=
EXTT3=
EXTT4=
EXTT5=
EXTT6=
EXTT7=
EXTT8=
EXTT9=
EXTT10=
EXTT11=
PLAYORDER=
